<svg xmlns="http://www.w3.org/2000/svg" width="127" height="40" viewBox="0 0 127 40">
    <g fill="none" fill-rule="evenodd">
        <path stroke="#FFF" stroke-width=".5" d="M39.448 25.142a4.956 4.956 0 0 1 2.42-4.264V.458H1.172v20.668a4.956 4.956 0 0 1 0 8.03v10.472h40.703V29.395a4.956 4.956 0 0 1-2.428-4.253z"/>
        <path fill="#FFF" d="M39.448 25.142a4.956 4.956 0 0 1 2.42-4.264v-8.57H1.172v8.818a4.956 4.956 0 0 1 0 8.03v10.472h40.703V29.395a4.956 4.956 0 0 1-2.419-4.262M9.714 7.905c.009.398-.107.788-.331 1.116a2.094 2.094 0 0 1-.93.726c-.433.175-.897.26-1.363.251a6.09 6.09 0 0 1-.527-.028 6.486 6.486 0 0 1-1.904-.525V7.752a7.59 7.59 0 0 0 1.03.537c.343.144.712.217 1.084.214.356 0 .587-.062.69-.186a.519.519 0 0 0 .157-.33.558.558 0 0 0-.27-.472 3.844 3.844 0 0 0-.783-.396 6.187 6.187 0 0 1-.998-.52 2.361 2.361 0 0 1-.702-.706c-.186-.3-.28-.65-.271-1.003a1.834 1.834 0 0 1 1.116-1.73 3.176 3.176 0 0 1 1.378-.27c.36-.003.718.035 1.07.112.277.059.55.143.811.251.152.062.299.135.44.22v1.62a5.698 5.698 0 0 0-.946-.543 2.642 2.642 0 0 0-1.117-.24.86.86 0 0 0-.558.149.467.467 0 0 0-.175.372.452.452 0 0 0 .175.353c.192.149.402.274.624.372.438.2.864.425 1.276.674.293.177.546.412.745.69.189.29.284.63.271.975M19.455 4.685h-2.533v5.23h-2.08v-5.23h-2.536V3.003h7.15z"/>
        <path fill="#FFF" fill-rule="nonzero" d="M29.17 9.914h-2.136l-.559-1.4h-3.007l-.573 1.4H20.76l3.058-6.911h2.308l3.044 6.911zM25.993 7.31l-1.012-2.523-1.022 2.523h2.034zM38.638 9.914h-2.233l-.544-1.226a5.11 5.11 0 0 0-.538-.984 1.163 1.163 0 0 0-.467-.398 1.655 1.655 0 0 0-.586-.087h-.235v2.697h-2.084V3.003h3.547c.493-.02.981.101 1.407.35.339.202.613.496.791.848.152.293.235.617.242.947.01.308-.06.613-.203.885a1.622 1.622 0 0 1-.426.527 4.28 4.28 0 0 1-.504.314c.213.119.402.275.558.462.235.337.434.7.592 1.079l.683 1.5zm-2.834-4.727a.716.716 0 0 0-.315-.668 2.068 2.068 0 0 0-1.022-.186h-.439v1.674h.449c.508 0 .856-.055 1.044-.167.187-.112.281-.325.283-.64v-.013z"/>
        <path fill="#FFF" d="M53.69 1.937c-.684-.648-1.343-.836-1.882-.836-.745 0-1.272.39-1.272.953 0 1.54 3.47 1.516 3.47 4.069 0 1.257-.953 2.175-2.247 2.175a3.537 3.537 0 0 1-2.246-.745V6.095c.588.744 1.329 1.165 2.118 1.165.893 0 1.303-.559 1.303-1.01 0-1.658-3.47-1.846-3.47-4.045 0-1.303.964-2.14 2.435-2.14a3.21 3.21 0 0 1 1.788.558l.002 1.314zM60.7 1.21h-3.4v2.42h3.281v1.036H57.3v2.491h3.504v1.036h-4.656V.173H60.7zM69.509 1.96c-.988-.576-1.835-.834-2.764-.834-1.835 0-3.2 1.302-3.2 3.07 0 1.798 1.319 3.045 3.247 3.045a5.253 5.253 0 0 0 2.791-.906v1.258a5.881 5.881 0 0 1-2.905.705c-3.011 0-4.329-2.317-4.329-3.998 0-2.447 1.846-4.233 4.4-4.233.824 0 1.658.199 2.753.659l.007 1.235zM78.495 5.042c0 1.965-1.177 3.258-3.564 3.258-1.694 0-3.341-.953-3.341-3.14V.176h1.152v4.737c0 .906.117 1.281.482 1.646a2.34 2.34 0 0 0 1.729.683c.882 0 1.517-.283 1.882-.648.41-.41.506-.999.506-1.752V.173h1.154v4.869z"/>
        <path fill="#FFF" fill-rule="nonzero" d="M83.023.173c1.623 0 2.635.858 2.635 2.246a2.006 2.006 0 0 1-1.342 1.962c.73.482 1.177 1.223 1.789 2.224.34.558.541.822 1.094 1.587h-1.375l-1.06-1.647c-1.058-1.646-1.54-1.834-2.128-1.834h-.49v3.475h-1.152V.167l2.029.006zm-.877 3.505h.745c1.235 0 1.587-.634 1.576-1.302-.011-.744-.46-1.211-1.576-1.211h-.745v2.513z"/>
        <path fill="#FFF" d="M93.421 1.21h-3.4v2.42h3.283v1.036H90.02v2.491h3.506v1.036H88.87V.173h4.552zM55.9 11.732h-2.775v6.984h-1.154v-6.984h-2.775v-1.036H55.9zM57.665 10.696h1.152v8.019h-1.152zM68.145 12.484c-.988-.577-1.835-.836-2.764-.836-1.835 0-3.2 1.303-3.2 3.07 0 1.8 1.318 3.046 3.247 3.046a5.253 5.253 0 0 0 2.791-.906v1.257a5.881 5.881 0 0 1-2.905.705c-3.011 0-4.33-2.316-4.33-3.998 0-2.446 1.847-4.232 4.4-4.232.825 0 1.659.199 2.753.658l.008 1.236zM77.283 18.716h-1.588l-4.081-3.963v3.963h-1.152v-8.02h1.152v3.669l3.376-3.67h1.435l-3.493 3.8zM83.505 11.732h-3.399v2.422h3.282v1.035h-3.282v2.493h3.505v1.034h-4.657v-8.02h4.55zM91.75 11.732h-2.775v6.984h-1.152v-6.984h-2.777v-1.036h6.704zM97.478 12.465c-.683-.647-1.341-.835-1.881-.835-.745 0-1.271.389-1.271.952 0 1.54 3.469 1.517 3.469 4.07 0 1.257-.953 2.174-2.247 2.174a3.537 3.537 0 0 1-2.246-.744v-1.459c.588.744 1.329 1.165 2.118 1.165.893 0 1.303-.558 1.303-1.01 0-1.658-3.47-1.846-3.47-4.045 0-1.302.965-2.14 2.435-2.14a3.21 3.21 0 0 1 1.789.559l.001 1.313z"/>
        <path fill="#FFF" fill-rule="nonzero" d="M56.835 29.24h-1.177l-1.057-2.364h-3.417l-1.01 2.363h-1.177l3.445-8.067h.812l3.58 8.067zm-5.212-3.4h2.494l-1.303-2.904-1.19 2.904z"/>
        <path fill="#FFF" d="M64.91 26.087c0 1.965-1.176 3.258-3.564 3.258-1.694 0-3.34-.952-3.34-3.138V21.22h1.151v4.74c0 .905.118 1.28.482 1.646a2.34 2.34 0 0 0 1.73.682c.882 0 1.516-.282 1.881-.647.411-.411.506-1 .506-1.753V21.22h1.152l.002 4.867zM73.285 22.255h-2.777v6.984h-1.152v-6.984H66.58V21.22h6.705zM81.847 29.24h-1.152v-3.493h-4.493v3.492H75.05V21.22h1.152v3.493h4.493V21.22h1.152z"/>
        <path fill="#FFF" fill-rule="nonzero" d="M88.351 21.114c2.647 0 4.316 1.881 4.316 4.116 0 2.163-1.623 4.115-4.34 4.115-2.622 0-4.28-1.94-4.28-4.115 0-2.223 1.704-4.116 4.304-4.116m0 7.173c1.8 0 3.129-1.303 3.129-3.057 0-1.755-1.329-3.057-3.129-3.057s-3.117 1.302-3.117 3.057c0 1.754 1.329 3.05 3.117 3.05M96.89 21.22c1.623 0 2.636.858 2.636 2.246a2.006 2.006 0 0 1-1.342 1.963c.73.482 1.176 1.222 1.788 2.223.34.558.542.822 1.095 1.587H99.69l-1.059-1.646c-1.059-1.647-1.54-1.835-2.129-1.835h-.482v3.481H94.87V21.22h2.021zm-.87 3.504h.744c1.236 0 1.587-.635 1.576-1.303-.011-.744-.46-1.21-1.576-1.21h-.745v2.513z"/>
        <path fill="#FFF" d="M102.736 21.219h1.152v8.019h-1.152zM110.382 22.984c-.69-.647-1.342-.844-1.884-.844-.744 0-1.27.388-1.27.952 0 1.54 3.468 1.516 3.468 4.069 0 1.258-.953 2.175-2.246 2.175a3.537 3.537 0 0 1-2.247-.744v-1.459c.589.744 1.33 1.165 2.118 1.165.894 0 1.303-.558 1.303-1.01 0-1.658-3.469-1.846-3.469-4.045 0-1.303.964-2.14 2.434-2.14a3.21 3.21 0 0 1 1.79.558l.003 1.323zM117.38 22.255h-3.4v2.422h3.28v1.035h-3.28v2.493h3.506v1.034h-4.659V21.22h4.553z"/>
        <path fill="#FFF" fill-rule="nonzero" d="M119.578 21.22h3.117c2.963 0 4.27 2.118 4.27 4.01 0 2.057-1.612 4.01-4.259 4.01h-3.128v-8.02zm1.152 6.985h1.835c2.605 0 3.21-1.987 3.21-2.977 0-1.611-1.023-2.977-3.27-2.977h-1.775v5.954zM51.925 31.743c1.623 0 2.635.858 2.635 2.246a2.006 2.006 0 0 1-1.34 1.963c.73.481 1.176 1.222 1.789 2.223.34.558.541.822 1.094 1.587h-1.375l-1.057-1.647c-1.063-1.65-1.545-1.836-2.133-1.836h-.482v3.481h-1.152v-8.019l2.02.002zm-.871 3.504h.744c1.236 0 1.588-.635 1.577-1.303-.011-.744-.458-1.211-1.577-1.211h-.744v2.514z"/>
        <path fill="#FFF" d="M62.323 32.778h-3.4V35.2h3.283v1.034h-3.283v2.493h3.506v1.035h-4.658v-8.019h4.552zM70.58 32.778h-2.776v6.984H66.65v-6.984h-2.775v-1.035h6.704z"/>
        <path fill="#FFF" fill-rule="nonzero" d="M78.271 39.762h-1.176l-1.07-2.367h-3.412l-1.012 2.363h-1.18l3.447-8.067h.811l3.592 8.07zm-5.21-3.4h2.493l-1.303-2.903-1.19 2.904z"/>
        <path fill="#FFF" d="M79.941 31.741h1.152v8.019h-1.152zM84.823 38.727h3.623v1.035h-4.775v-8.019h1.152zM94.715 32.778h-3.4V35.2h3.282v1.034h-3.283v2.493h3.507v1.035h-4.659v-8.019h4.553z"/>
        <path fill="#FFF" fill-rule="nonzero" d="M98.938 31.743c1.622 0 2.635.858 2.635 2.246a2.006 2.006 0 0 1-1.342 1.963c.73.481 1.176 1.222 1.787 2.223.34.558.541.822 1.094 1.587h-1.375l-1.06-1.647c-1.058-1.646-1.54-1.834-2.128-1.834h-.482v3.48h-1.154v-8.018h2.025zm-.871 3.504h.744c1.236 0 1.588-.635 1.576-1.303-.01-.744-.46-1.211-1.576-1.211h-.744v2.514z"/>
        <path fill="#FFF" d="M108.617 33.507c-.683-.647-1.341-.835-1.881-.835-.745 0-1.271.388-1.271.952 0 1.54 3.469 1.516 3.469 4.069 0 1.258-.953 2.175-2.247 2.175a3.537 3.537 0 0 1-2.246-.744v-1.459c.588.744 1.329 1.165 2.118 1.165.893 0 1.303-.558 1.303-1.012 0-1.658-3.47-1.846-3.47-4.045 0-1.302.965-2.14 2.435-2.14a3.211 3.211 0 0 1 1.789.559l.001 1.315zM105.225 13.194h-.931l-.745 5.746h-.846l.735-5.746h-.735l.111-.764h.735c.092-1.388.765-2.47 2.206-2.47.382.006.76.079 1.117.215l-.123.858a1.975 1.975 0 0 0-.897-.255c-.847 0-1.348.582-1.439 1.652h.93l-.118.764z"/>
        <path fill="#FFF" d="M106.713 13.297l.02.02c.543-.776.777-.958 1.216-.958a.88.88 0 0 1 .372.07v.98c-.159-.1-.342-.153-.53-.153-.448 0-.756.275-1.236 1.174l-.357 2.582h-.867l.644-4.58h.867l-.129.865z"/>
        <path fill="#FFF" fill-rule="nonzero" d="M110.216 17.153c-1.081 0-1.725-.764-1.725-2.046 0-1.602.949-2.817 2.194-2.817 1.04 0 1.705.797 1.705 2 0 1.714-.97 2.867-2.174 2.867m-.03-.744c.724 0 1.316-.908 1.316-2.173 0-.765-.316-1.265-.817-1.265-.744 0-1.303 1.06-1.303 2.232 0 .735.358 1.215.806 1.215"/>
        <path fill="#FFF" d="M114.229 13.226l.02.02c.559-.632 1.072-.887 1.582-.887.372 0 .92.186 1.04 1.03.665-.816 1.266-1.03 1.715-1.03.662 0 1.224.5 1.051 1.674l-.418 2.977h-.868l.428-3.01c.091-.603-.09-.96-.469-.96-.307 0-.806.225-1.438 1.06l-.42 2.908h-.866l.407-2.896c.103-.663-.02-1.072-.51-1.072-.337 0-.899.419-1.377 1.06l-.408 2.908h-.867l.653-4.58h.86l-.115.798z"/>
        <path fill="#000" fill-rule="nonzero" d="M26.029 20.115h-.678v-1.76a3.825 3.825 0 0 0-7.65 0v1.76h-.678c-.814 0-.981.17-.981.983v8.576c0 .813.167.983.98.983h9.009c.813 0 .98-.168.98-.983v-8.576c0-.813-.167-.983-.98-.983h-.002zm-2.007 0H19.03v-1.484c0-1.584.912-2.681 2.494-2.681 1.582 0 2.496 1.097 2.496 2.68v1.417l.003.068z"/>
        <path fill="#FFF" d="M20.324 25.758l-1.632-1.181s-.112-.067-.078-.173c.033-.106.162-.091.162-.091h2.017l.622-1.917s.028-.126.14-.126c.111 0 .137.126.137.126l.624 1.917h2.015s.129-.015.164.09c.036.107-.078.17-.078.17l-1.632 1.185.625 1.916a.16.16 0 0 1-.037.186.156.156 0 0 1-.186-.022l-1.63-1.185-1.63 1.185a.158.158 0 0 1-.187.022.156.156 0 0 1-.037-.186l.621-1.916z"/>
        <path fill="#000" d="M7.214 35.206a1.076 1.076 0 0 0-.744-.333c-.296 0-.506.154-.506.372 0 .614 1.384.604 1.384 1.622a.856.856 0 0 1-.897.867 1.411 1.411 0 0 1-.897-.296v-.582c.193.279.506.451.845.465.358 0 .521-.225.521-.404 0-.66-1.384-.744-1.384-1.613 0-.52.385-.854.971-.854.255.003.503.081.713.225l-.006.53zM10.604 34.915H9.496V37.7h-.46v-2.785H7.93v-.413h2.675z"/>
        <path fill="#000" fill-rule="nonzero" d="M13.75 37.7h-.466l-.427-.943h-1.36l-.404.943h-.47l1.375-3.216h.323l1.43 3.216zm-2.078-1.356h.994l-.516-1.159-.478 1.16zM15.28 34.502c.648 0 1.052.343 1.052.897a.8.8 0 0 1-.534.783c.29.186.469.488.713.886.136.221.216.327.435.632h-.549l-.422-.656c-.423-.657-.614-.731-.849-.731h-.186V37.7h-.465v-3.198h.806zm-.346 1.405h.296c.494 0 .633-.253.63-.521 0-.3-.187-.484-.63-.484h-.296v1.005z"/>
        <path fill="#000" d="M18.242 37.462a.281.281 0 1 1-.562 0 .281.281 0 0 1 .562 0"/>
        <path fill="#000" fill-rule="nonzero" d="M20.607 34.46c1.056 0 1.722.744 1.722 1.64 0 .864-.648 1.641-1.731 1.641a1.636 1.636 0 0 1-1.709-1.64c0-.886.68-1.641 1.718-1.641m0 2.86a1.219 1.219 0 1 0-1.243-1.218 1.2 1.2 0 0 0 1.243 1.219M24.065 34.502c.648 0 1.052.343 1.052.897a.8.8 0 0 1-.534.783c.29.186.469.488.712.886.136.221.216.327.436.632h-.55l-.422-.656c-.422-.657-.614-.731-.848-.731h-.186V37.7h-.46v-3.198h.8zm-.348 1.405h.296c.493 0 .633-.253.63-.521 0-.3-.187-.484-.63-.484h-.296v1.005z"/>
        <path fill="#000" d="M29.072 37.48a2.806 2.806 0 0 1-1.22.263c-.98 0-1.702-.684-1.702-1.622a1.656 1.656 0 0 1 1.718-1.66c.396.003.786.096 1.14.272v.465c-.35-.2-.746-.309-1.15-.314a1.21 1.21 0 0 0-1.234 1.224c0 .712.534 1.215 1.303 1.215.237-.006.471-.048.694-.127v-.656h-.614v-.413h1.074l-.01 1.354zM30.605 37.462a.281.281 0 1 1-.562 0 .281.281 0 0 1 .562 0M34.149 36.443c0 .783-.469 1.302-1.422 1.302-.676 0-1.333-.372-1.333-1.252v-1.99h.46v1.89c0 .36.047.511.186.656a.93.93 0 0 0 .69.272c.273.014.54-.079.745-.259.164-.163.201-.398.201-.7v-1.86h.46l.013 1.94zM37.916 37.7h-.633l-1.628-1.58v1.58h-.46v-3.198h.46v1.463l1.347-1.463h.572l-1.395 1.515z"/>
        <path fill="#FFF" d="M111.297 31.909h-.498l-.22 1.555h-.246l.22-1.555h-.5l.031-.222h1.245zM113.047 33.464h-.236v-1.347h-.004l-.715 1.347-.307-1.36h-.006l-.437 1.36h-.236l.588-1.777h.203l.275 1.204.639-1.204h.236z"/>
    </g>
</svg>
