<svg width="75" height="15" xmlns="http://www.w3.org/2000/svg"><g fill="none" fill-rule="evenodd"><path d="M0-1h75v16H0z"/><path d="M55.095 7.018c0 2.335 1.789 4.653 4.87 4.653 1.59-.018 3.049-.822 4.108-2.153l-1.607-.894c-.657.876-1.532 1.368-2.554 1.368-1.332 0-2.59-.966-2.7-2.317h7.335v-.347c0-3.447-2.738-4.962-4.581-4.962-3.082 0-4.87 2.317-4.87 4.652M7.034 11.421h1.897V2.59H7.035v8.83zm3.04-4.403c0 2.335 1.788 4.652 4.872 4.652 1.674 0 3.169-.893 3.952-2.134l-1.658-.986c-.511.803-1.254 1.332-2.294 1.332-1.66 0-2.866-1.277-2.866-2.864s1.205-2.865 2.866-2.865c1.076 0 1.783.548 2.294 1.333l1.658-.986c-.856-1.24-2.078-2.135-3.952-2.135-3.084 0-4.873 2.318-4.873 4.653M19.94.035V11.42h1.897V7.66l3.695 3.76h2.302l-4.45-4.392 3.682-4.22h-2.032l-3.197 3.535V.035H19.94M1.538.755V2.53H0v1.756h1.538v4.984c0 1.057.644 2.13 2.174 2.13h1.057V9.649h-.714c-.473 0-.658-.228-.658-.67V4.284h2.402V2.529H3.397V.756H1.538m25.64 6.367c0 2.282 1.747 4.548 4.76 4.548 1.552-.019 2.978-.803 4.013-2.105l-1.57-.875c-.642.857-1.497 1.339-2.496 1.339-1.302 0-2.533-.945-2.639-2.266h7.169v-.338c0-3.37-2.676-4.85-4.476-4.85-3.014 0-4.762 2.264-4.762 4.547M65.564.074v11.332h1.875v-1.064h.037c.596.794 1.678 1.3 2.868 1.3 2.87 0 4.53-2.346 4.53-4.601 0-2.147-1.786-4.601-4.62-4.601-1.299 0-2.291.56-2.778 1.299h-.037V.074h-1.875zm1.804 6.967c0-1.57 1.263-2.832 2.742-2.832 1.515 0 2.78 1.262 2.78 2.832 0 1.569-1.265 2.832-2.78 2.832-1.479 0-2.742-1.263-2.742-2.832zM31.69 4.216c1.176 0 2.156.695 2.55 2.015h-4.994c.303-1.283 1.267-2.015 2.444-2.015zm28.022-.171c1.203 0 2.207.711 2.609 2.061h-5.11c.311-1.314 1.297-2.061 2.5-2.061M38.304.755V2.53h-1.539l-.001 1.756h1.54V9.27c0 1.057.644 2.13 2.173 2.13h1.057V9.65h-.715c-.47 0-.656-.229-.656-.672V4.286h2.494l3.833 10.62h.394l1.894-4.56h.037l1.894 4.56h.393L53.7 7.68h3.305V6.102h-4.763l-1.567 4.737h-.036l-1.635-4.165-.415-.002-1.635 4.167h-.036l-2.959-8.31h-3.796V.757h-1.86" fill="#FFF" fill-rule="nonzero"/></g></svg>