<svg width="59" height="13" fill="none" xmlns="http://www.w3.org/2000/svg"><path fill="#fff" d="M37.804 3.804c-.214.386-.385.978-.385 1.88 0 1.88.043 4.4.043 4.486 0 .13.043.215.214.258.128.043.423.086.852.086.471 0 .842-.043.971-.086.171-.086.161-.215.161-.215v-4.4c0-.855.729-1.299 1.586-1.179l.05.014c.595.12.679.091.855-.167.172-.296.508-1.021.637-1.446.043-.129-.033-.229-.214-.296-.129-.043-.471-.171-.938-.257a5.873 5.873 0 0 0-.97-.086c-1.17 0-2.229.401-2.862 1.408zM1.12 2.477c-.176.048-.209.138-.209.267 0 .043-.042 2.468-.043 4.298v.021c0 .893.172 1.355.385 1.742.639 1.113 1.747 1.704 3.238 1.704h.042c1.495 0 2.642-.596 3.275-1.704.214-.382.385-.85.385-1.742 0-1.832-.043-4.243-.043-4.328a.26.26 0 0 0-.204-.258c-.123-.034-.438-.072-.861-.072-.467 0-.847.034-.977.077-.17.038-.17.253-.17.253.042 1.493 0 3.984 0 4.2 0 .896-.639 1.364-1.447 1.364-.81 0-1.448-.468-1.452-1.365 0-.21.004-2.739.004-4.233 0 0 0-.148-.214-.22-.119-.042-.385-.085-.857-.085-.385 0-.676.028-.851.08zM26.839 2.825c-.124.172-1.357 3.375-1.695 4.271-.042.044-.171.044-.171 0-.257-.682-1.528-4.056-1.614-4.271-.171-.339-.257-.424-1.147-.424-.423 0-1.019.038-1.019.296 0 .257.724 2.175 1.528 4.266.762 1.961 1.338 3.207 1.485 3.379.148.176.558.167.943.172.386 0 .776.005.876-.167.133-.225.732-1.456 1.494-3.422.805-2.09 1.486-3.971 1.486-4.228 0-.296-.596-.296-1.02-.296-.89 0-.975.08-1.146.424zM12.982 2.396c-1.443 0-2.585.577-3.304 1.732-.21.386-.381.878-.381 1.78 0 1.847.043 4.238.043 4.324 0 .087.1.19.21.215.109.024.466.062.89.062.465 0 .732-.01.89-.052.151-.048.165-.249.165-.249-.043-1.503.004-4.08.004-4.295 0-.897.683-1.456 1.487-1.456.847 0 1.447.554 1.447 1.456v4.3s.005.153.162.215c.162.057.462.076.928.076.423 0 .719 0 .848-.043.166-.043.209-.124.209-.253 0-.043.043-2.486.043-4.329 0-.896-.172-1.36-.381-1.746-.638-1.16-1.738-1.737-3.222-1.737h-.038zM18.255 2.443c-.166.043-.21.13-.21.258 0 .043-.042.516-.042 3.67 0 3.289.043 3.713.043 3.756 0 .124.038.272.21.315.104.024.499.067.923.067.423 0 .723-.024.852-.067.157-.067.21-.128.21-.258 0-.043.042-.534.042-3.818 0-3.154-.043-3.627-.043-3.67 0-.129-.047-.234-.21-.257a8.276 8.276 0 0 0-.928-.043c-.423 0-.718 0-.847.047zM43.207 5.001c0 1.79 1.642 2.253 3.218 2.382l.147.014c.595.043 1.238.082 1.238.678 0 .468-.262.726-.986.726-.852 0-1.875-.387-2.556-.726-.342-.172-.552-.344-.638-.344-.085 0-.385.258-.637.597-.215.344-.343.725-.257.854.214.258.895.597 1.576.854.551.215 1.447.469 2.384.469 2.128 0 3.532-.98 3.532-2.65.086-2.047-2.004-2.386-3.537-2.428-.343 0-1.023-.087-1.023-.678 0-.597.433-.64.9-.64.294 0 .895.086 1.704.296.552.172.937.344 1.066.387.128.085.385-.258.595-.683.21-.425.256-.811.128-.854-.214-.129-1.875-.854-3.617-.854-1.533 0-3.237.682-3.237 2.6zM50.99 6.28c0-2.348 1.485-3.884 3.775-3.884 1.952 0 3.698 1.026 3.698 3.884 0 .301-.005.382.01.678-.005.19-.152.258-.338.258-.429 0-1.361.043-2.675.043-.81 0-1.804-.043-2.185-.043-.057 0-.066.02-.062.062.038.257.5 1.35 1.814 1.35.551 0 1.485-.17 2.118-.467.21-.086.285-.053.338 0 .095.096.252.339.423.683.129.295.215.51.257.64.038.17 0 .214-.257.343-.766.386-1.57.682-3.013.682-1.485 0-3.903-1.327-3.903-4.229zm2.204-.7l3.213.008c.033 0 .1-.009.095-.095 0-.811-.756-1.446-1.69-1.446-.933 0-1.704.635-1.704 1.446 0 0 0 .086.086.086zM28.999 6.328c0-2.348 1.485-3.885 3.774-3.885 1.952 0 3.7 1.026 3.7 3.885 0 .301-.006.382.009.678-.005.19-.153.258-.338.258-.428 0-1.362.042-2.676.042-.809 0-1.804-.042-2.184-.042-.058 0-.067.019-.062.062.038.257.5 1.35 1.813 1.35.553 0 1.485-.172 2.118-.467.21-.086.286-.053.338 0 .095.095.252.338.424.682.128.296.214.51.257.64.038.172 0 .214-.257.344-.766.386-1.57.682-3.013.682-1.485 0-3.903-1.327-3.903-4.229zm2.204-.701l3.213.01c.033 0 .1-.01.1-.092 0-.81-.762-1.45-1.695-1.45s-1.704.634-1.704 1.446c0 0 0 .086.086.086z"/></svg>